<?xml version="1.0" standalone="no"?>
<!DOCTYPE svg PUBLIC "-//W3C//DTD SVG 20010904//EN"
 "http://www.w3.org/TR/2001/REC-SVG-20010904/DTD/svg10.dtd">
<svg version="1.0" xmlns="http://www.w3.org/2000/svg"
 width="500.000000pt" height="500.000000pt" viewBox="0 0 500.000000 500.000000"
 preserveAspectRatio="xMidYMid meet">
<metadata>
Created by potrace 1.14, written by Peter Selinger 2001-2017
</metadata>
<g transform="translate(0.000000,500.000000) scale(0.100000,-0.100000)"
fill="#000000" stroke="none">
<path d="M2320 4153 c-87 -13 -248 -47 -320 -69 -161 -49 -422 -189 -544 -293
-263 -223 -439 -480 -536 -781 -63 -196 -79 -311 -75 -525 2 -99 5 -189 8
-200 2 -11 8 -40 12 -65 14 -84 16 -95 31 -150 79 -282 212 -514 419 -729 232
-241 522 -399 869 -473 128 -27 437 -34 561 -13 182 31 350 85 500 162 98 50
260 154 315 203 314 279 500 595 575 982 9 46 19 144 22 218 27 660 -322 1260
-907 1559 -137 70 -339 139 -455 156 -22 3 -65 9 -95 14 -53 8 -328 11 -380 4z
m425 -38 c272 -36 593 -182 805 -366 347 -300 538 -674 578 -1133 50 -566
-234 -1148 -716 -1469 -705 -469 -1617 -340 -2166 307 -160 188 -288 454 -345
711 -54 244 -41 557 33 800 166 550 605 973 1159 1116 45 12 98 23 117 26 19
3 51 8 70 12 19 4 80 9 135 10 55 2 101 4 102 5 3 2 172 -11 228 -19z"/>
<path d="M2355 3937 c-2 -7 -9 -29 -15 -51 l-12 -38 -22 38 c-20 37 -66 60
-66 35 0 -6 4 -11 9 -11 5 0 8 -25 8 -55 -2 -47 1 -55 16 -55 17 0 17 16 1 68
-8 26 7 10 27 -30 20 -39 22 -41 35 -23 8 10 14 28 14 39 0 12 5 28 11 36 7
11 9 2 7 -33 -3 -44 -2 -48 17 -43 11 3 25 6 30 6 6 0 4 4 -2 8 -7 4 -14 32
-17 62 -3 40 -8 54 -21 56 -9 1 -18 -3 -20 -9z"/>
<path d="M2586 3896 c-15 -31 -32 -59 -38 -62 -6 -4 -5 -10 3 -15 22 -14 29
-11 29 11 0 13 7 20 20 20 13 0 20 -7 20 -20 0 -14 7 -20 23 -20 l24 0 -22 65
c-13 36 -25 68 -27 71 -3 2 -17 -20 -32 -50z m28 -28 c-9 -14 -23 2 -17 18 4
12 8 13 14 3 4 -7 5 -17 3 -21z"/>
<path d="M2845 3889 c4 -6 2 -31 -5 -55 -10 -36 -15 -42 -27 -33 -17 14 -28 6
-20 -16 8 -18 41 -20 54 -2 5 6 17 32 26 56 13 35 14 47 4 53 -18 11 -39 10
-32 -3z"/>
<path d="M1865 3800 c-55 -30 -44 -71 20 -75 41 -3 50 -9 40 -25 -5 -7 -19
-10 -36 -6 -27 5 -28 4 -19 -13 9 -17 14 -18 40 -8 33 12 50 51 32 69 -6 6
-27 11 -48 12 -21 1 -39 7 -42 14 -5 17 26 26 43 12 12 -10 15 -10 15 1 0 30
-14 36 -45 19z"/>
<path d="M3042 3803 c-7 -3 -19 -18 -27 -33 -12 -23 -13 -34 -4 -53 31 -69
129 -44 129 32 0 42 -54 72 -98 54z m68 -39 c0 -30 -27 -74 -46 -74 -35 0 -37
70 -2 95 27 18 48 9 48 -21z"/>
<path d="M3290 3673 c0 -10 -16 -35 -36 -57 -33 -36 -34 -39 -17 -51 15 -11
19 -11 23 1 8 23 24 13 24 -15 1 -37 26 -39 26 -2 0 24 4 31 20 31 21 0 40 27
33 47 -2 6 -20 23 -39 38 -30 23 -34 24 -34 8z m44 -56 c-3 -9 -15 -17 -25
-17 -23 0 -24 8 -2 32 19 21 37 10 27 -15z"/>
<path d="M1639 3651 c-26 -26 -28 -32 -18 -60 12 -35 35 -51 73 -51 26 0 56
33 56 60 -1 8 -7 3 -16 -12 -17 -33 -42 -36 -72 -8 -37 34 -24 79 20 72 13 -2
16 1 12 12 -9 23 -22 20 -55 -13z"/>
<path d="M2285 3615 c-152 -28 -323 -102 -453 -197 -128 -93 -265 -247 -326
-366 -30 -58 -11 -58 21 0 245 433 763 652 1249 528 275 -71 540 -268 680
-508 36 -61 54 -82 54 -64 0 4 -19 39 -41 78 -164 273 -443 468 -759 529 -92
18 -327 18 -425 0z"/>
<path d="M1162 2820 c-72 -46 -176 -178 -216 -274 -8 -20 -17 -36 -20 -36 -5
0 42 157 55 182 12 22 11 31 -1 23 -20 -12 -71 -157 -84 -238 -24 -143 -14
-173 18 -59 40 138 145 305 238 377 61 48 93 58 113 38 23 -23 12 -78 -42
-198 -25 -55 -60 -134 -79 -175 -32 -70 -44 -130 -26 -130 4 0 13 9 20 20 7
11 34 33 60 50 l47 29 10 -36 c16 -57 51 -59 169 -8 14 6 17 5 12 -4 -22 -35
-13 -111 14 -111 4 0 32 21 60 48 65 59 112 87 109 65 -4 -23 3 -35 16 -29 8
3 25 -5 39 -19 28 -28 39 -26 101 15 75 50 85 54 100 33 13 -17 16 -16 54 22
44 42 47 42 31 -1 -13 -32 -4 -64 16 -64 19 0 134 62 134 72 0 4 -30 -9 -66
-28 -36 -20 -68 -33 -72 -30 -3 4 1 27 11 52 15 40 15 46 1 51 -10 3 -30 -9
-55 -33 -39 -38 -49 -40 -27 -4 17 27 0 39 -20 14 -25 -30 -158 -106 -179
-102 -22 4 -24 24 -6 60 17 35 17 35 -13 42 -19 5 -33 2 -48 -12 -11 -11 -34
-26 -51 -35 -16 -8 -51 -33 -77 -56 -25 -23 -51 -41 -57 -41 -18 0 -12 42 13
95 14 27 23 51 21 53 -1 2 -24 -11 -50 -29 -49 -33 -121 -59 -142 -52 -7 3
-13 14 -13 24 0 28 -18 59 -33 59 -7 0 -34 -13 -59 -29 l-46 -29 8 26 c4 15
31 77 60 137 86 180 109 267 77 293 -31 26 -66 21 -125 -18z m518 -397 c-1 -5
-12 -21 -26 -38 -17 -21 -23 -24 -18 -10 11 30 45 68 44 48z"/>
<path d="M2665 2721 c-28 -36 -84 -117 -124 -178 -40 -62 -79 -113 -85 -113
-6 1 -35 9 -65 19 -55 19 -102 15 -125 -10 -8 -9 -6 -10 9 -5 47 17 85 18 129
1 25 -10 46 -21 46 -24 0 -4 -20 -28 -45 -54 -61 -65 -105 -63 -105 4 0 10 -4
19 -10 19 -17 0 -11 -36 10 -62 14 -19 26 -24 45 -21 35 7 124 110 202 233 63
100 161 240 170 240 8 0 -13 -64 -73 -215 -35 -88 -67 -159 -71 -159 -5 1 -26
4 -48 7 l-40 6 46 -17 45 -17 -13 -45 c-8 -26 -9 -48 -4 -53 9 -9 14 2 26 60
8 39 8 39 63 48 l42 7 -12 -29 c-6 -15 -19 -37 -29 -48 -33 -40 -40 -62 -24
-78 8 -9 24 -13 35 -10 29 8 76 59 99 108 14 31 29 46 52 54 18 6 33 11 35 11
2 0 1 -13 -2 -30 -8 -36 10 -40 48 -10 l25 19 -7 -40 c-13 -71 5 -109 51 -109
23 0 45 16 102 73 39 41 82 79 94 85 19 11 22 9 25 -11 2 -15 10 -22 25 -21
12 0 20 -2 18 -5 -12 -20 -13 -80 -1 -96 12 -16 12 -15 8 14 -5 38 21 111 55
151 14 17 23 35 21 41 -3 10 -53 -36 -82 -76 -22 -31 -32 -9 -13 30 14 29 14
35 3 35 -8 0 -18 -9 -21 -20 -3 -11 -13 -20 -21 -20 -7 0 -54 -38 -103 -85
-50 -47 -99 -85 -109 -85 -31 0 -41 62 -22 131 9 31 15 37 44 42 73 12 209
125 241 201 20 46 2 86 -38 86 -18 0 -46 -9 -63 -19 -54 -33 -131 -120 -161
-182 -18 -39 -34 -59 -46 -59 -10 0 -28 -6 -40 -14 -26 -16 -98 -31 -96 -19 6
33 -24 46 -49 21 -7 -7 -12 -9 -12 -5 0 12 66 132 117 215 25 40 43 75 40 79
-9 8 -102 -139 -145 -228 -33 -70 -41 -80 -75 -90 -20 -7 -40 -9 -44 -6 -3 4
19 76 51 160 66 175 79 224 62 230 -6 3 -34 -25 -61 -62z m546 -48 c5 -76 -58
-160 -169 -225 -49 -29 -82 -36 -82 -17 0 24 64 130 104 172 76 80 144 113
147 70z m-448 -272 c-2 -10 -21 -26 -41 -35 -34 -17 -35 -17 -22 1 47 62 74
77 63 34z m161 20 c3 -4 -10 -22 -29 -40 -41 -37 -50 -15 -10 24 26 27 31 29
39 16z m-193 -99 c-25 -49 -80 -97 -94 -83 -7 7 -7 17 -1 30 9 20 105 103 112
97 2 -2 -6 -22 -17 -44z"/>
<path d="M3510 2717 c-56 -66 -119 -165 -166 -261 -82 -167 -46 -230 69 -121
26 25 49 45 50 45 1 0 1 -18 -1 -41 -3 -22 0 -45 5 -50 6 -6 10 4 11 26 2 39
48 151 67 163 14 8 136 183 159 230 24 47 9 60 -25 20 -47 -54 -134 -187 -173
-265 -20 -40 -40 -73 -44 -73 -4 0 -31 -23 -61 -51 -60 -55 -88 -60 -83 -16 4
38 39 116 70 157 15 19 27 40 28 45 0 15 61 116 89 150 l25 30 -20 -35 c-11
-19 -36 -59 -55 -87 -19 -29 -33 -53 -30 -53 8 0 115 164 115 177 0 7 5 13 10
13 12 0 14 27 2 34 -4 2 -23 -14 -42 -37z m174 -29 c-27 -48 -130 -188 -109
-148 15 28 107 160 112 160 2 0 1 -6 -3 -12z"/>
<path d="M4028 2695 c-48 -74 -120 -212 -133 -255 -4 -14 -11 -27 -15 -30 -5
-3 -2 -14 6 -24 13 -18 15 -17 55 18 22 21 43 36 45 33 3 -2 -9 -33 -26 -68
-34 -73 -36 -82 -15 -99 11 -9 27 0 87 56 96 89 98 91 63 69 -16 -10 -55 -43
-85 -74 -65 -67 -77 -54 -32 36 16 32 33 68 36 81 11 34 -19 28 -71 -14 l-43
-36 20 52 c27 69 53 120 112 218 61 102 58 133 -4 37z"/>
<path d="M3640 2408 c-19 -17 -51 -45 -70 -62 -19 -18 -46 -39 -60 -49 -15
-10 -19 -17 -10 -17 8 0 41 25 74 55 32 30 60 55 63 55 2 0 3 -8 1 -17 -2 -13
3 -17 20 -16 13 2 22 -3 22 -11 0 -15 21 -26 50 -26 15 0 112 58 130 77 7 8
-39 -17 -82 -44 -43 -26 -78 -30 -78 -8 0 9 7 31 14 50 13 29 13 35 1 35 -7 0
-19 2 -27 5 -7 2 -29 -10 -48 -27z m38 -17 c-7 -12 -16 -21 -21 -21 -8 0 -2
14 16 38 16 20 20 6 5 -17z"/>
<path d="M1450 2075 c0 -23 84 -178 131 -242 65 -88 135 -159 231 -233 117
-91 311 -184 423 -203 17 -3 53 -10 80 -16 28 -6 122 -9 210 -7 133 3 176 8
258 29 245 65 470 218 627 425 57 76 144 237 137 255 -2 7 -25 -29 -50 -79
-229 -455 -726 -695 -1232 -595 -323 64 -640 315 -774 614 -30 66 -41 81 -41
52z"/>
<path d="M1342 1838 c-6 -6 -12 -29 -12 -50 0 -26 -4 -38 -14 -38 -22 0 -28
17 -16 40 8 16 8 20 -4 20 -22 0 -27 -15 -17 -44 12 -30 42 -48 61 -36 7 4 16
28 19 52 6 46 27 51 25 6 -2 -24 0 -26 18 -17 19 10 19 11 1 42 -21 35 -42 44
-61 25z"/>
<path d="M3577 1826 c-16 -24 -20 -39 -18 -69 1 -22 58 -57 80 -50 50 18 72
72 42 102 -19 19 -20 19 -37 0 -9 -10 -14 -20 -11 -20 4 -1 12 -3 17 -4 6 -1
15 -3 20 -4 14 -2 12 -17 -5 -34 -20 -21 -67 -7 -82 23 -14 28 -3 47 30 52
l22 3 -21 13 c-19 10 -24 9 -37 -12z"/>
<path d="M1445 1615 c-44 -43 -21 -105 39 -105 58 0 90 59 55 103 -26 34 -62
35 -94 2z m85 -15 c9 -17 6 -25 -15 -46 -28 -28 -68 -30 -73 -3 -4 22 36 69
58 69 11 0 24 -9 30 -20z"/>
<path d="M3453 1629 c-15 -15 -18 -33 -5 -25 8 5 52 -29 52 -39 0 -2 -22 -2
-49 0 -35 2 -54 -1 -62 -11 -9 -11 -8 -14 3 -14 20 0 78 -50 78 -68 0 -12 3
-12 15 -2 19 15 19 30 2 30 -8 0 -22 9 -32 20 -17 19 -16 19 35 17 29 -1 54 3
56 8 2 6 -14 24 -36 40 -21 17 -40 36 -42 43 -2 11 -5 11 -15 1z"/>
<path d="M1670 1455 c0 -8 -16 -31 -36 -52 -34 -35 -35 -38 -18 -50 17 -12 20
-11 27 12 10 28 27 34 27 9 0 -14 3 -14 15 -4 16 13 20 31 8 29 -20 -3 -24 2
-13 16 18 22 40 18 40 -6 0 -18 2 -19 15 -9 13 11 10 16 -21 41 -42 33 -44 34
-44 14z"/>
<path d="M3243 1424 c-29 -22 -48 -54 -24 -40 10 6 61 -63 61 -83 0 -12 79 38
80 50 0 4 -8 13 -17 20 -15 12 -16 12 -10 -3 9 -25 -17 -42 -34 -22 -11 13
-10 17 2 24 12 8 11 12 -3 27 -17 16 -18 16 -18 0 0 -22 -16 -22 -24 0 -8 19
11 34 33 25 14 -5 14 -3 2 11 -7 9 -14 17 -15 17 0 0 -16 -12 -33 -26z"/>
<path d="M1840 1319 c-10 -18 -10 -19 8 -10 11 6 22 8 25 4 7 -6 -18 -60 -40
-85 -13 -14 -12 -17 3 -26 15 -8 21 -2 41 40 13 29 28 48 35 45 7 -2 12 -11
10 -21 -4 -22 5 -20 18 3 8 17 4 23 -36 45 -26 14 -48 26 -50 26 -2 0 -8 -9
-14 -21z"/>
<path d="M2890 1234 c-45 -19 -44 -18 -26 -46 9 -13 17 -37 19 -54 2 -16 5
-31 8 -33 4 -3 89 20 89 25 0 12 -14 34 -22 34 -5 0 -7 -4 -3 -9 3 -6 -3 -15
-14 -20 -15 -8 -20 -7 -25 5 -10 25 -7 34 9 28 17 -7 21 21 5 31 -5 3 -10 1
-10 -4 0 -17 -17 -13 -24 5 -9 24 3 35 25 24 20 -11 24 -4 11 17 -5 8 -16 8
-42 -3z"/>
<path d="M2067 1171 c3 -36 9 -70 13 -74 4 -5 18 9 31 30 l24 38 3 -35 c5 -63
11 -66 39 -24 14 21 34 49 45 60 19 21 19 21 -2 27 -15 4 -20 2 -17 -7 3 -7
-5 -26 -17 -41 l-23 -29 2 43 c2 47 -10 62 -30 35 -43 -60 -42 -59 -40 -25 1
17 4 34 8 37 13 13 7 22 -17 26 -23 5 -23 4 -19 -61z"/>
<path d="M2633 1173 c-30 -4 -31 -5 -18 -29 7 -14 12 -43 11 -65 -1 -34 2 -39
21 -39 12 0 25 5 28 10 3 6 1 10 -4 10 -6 0 -11 8 -11 17 0 14 4 13 24 -7 15
-13 31 -20 41 -16 14 5 12 10 -12 31 -15 13 -23 25 -17 25 7 0 14 9 17 20 6
22 -17 51 -36 48 -7 0 -26 -3 -44 -5z m52 -38 c0 -11 -8 -21 -17 -23 -14 -3
-18 3 -18 23 0 20 4 26 18 23 9 -2 17 -12 17 -23z"/>
<path d="M2384 1114 c-16 -32 -30 -62 -32 -66 -2 -5 5 -8 16 -8 13 0 19 6 18
17 -1 11 6 18 19 17 14 0 19 -5 18 -21 -2 -16 3 -20 22 -20 14 0 25 1 25 2 0
9 -45 121 -51 129 -4 5 -20 -18 -35 -50z m36 -15 c0 -5 -7 -9 -15 -9 -9 0 -12
6 -9 15 6 15 24 11 24 -6z"/>
</g>
</svg>
